# Blender 4.2.0
# www.blender.org
mtllib RockPlatform3.mtl
o Cube.003
v 4.023791 -1.000000 -1.000000
v 2.023791 -1.000000 -1.000000
v 2.023791 1.000000 -1.000000
v 4.023791 1.000000 -1.000000
v 1.920116 -0.069370 0.017728
v 3.920116 -0.069370 0.017728
v 4.023791 1.000000 1.000000
v 2.023791 1.000000 1.000000
v 3.695313 -0.983659 -1.036749
v 2.453823 -0.991944 -0.891905
v 2.690458 1.000000 -1.000000
v 3.357125 1.000000 -1.000000
v 2.501335 0.064730 -0.041526
v 3.364986 -0.059366 -0.003126
v 3.357125 1.000000 1.000000
v 2.690458 1.000000 1.000000
v 4.023791 1.000000 -0.333333
v 4.023791 1.000000 0.333333
v 2.023791 1.000000 -0.333333
v 2.023791 1.000000 0.333333
v 2.129203 -0.601659 -0.575145
v 1.705396 -0.480709 -0.261025
v 4.129203 -0.601659 -0.575145
v 3.705396 -0.480709 -0.261025
v 4.274612 0.780769 0.853491
v 4.175856 0.191316 0.412148
v 2.274613 0.780769 0.853491
v 2.175856 0.191316 0.412148
v 1.886769 0.563253 -1.000000
v 2.279258 -0.739757 -1.000000
v 3.886768 0.563253 -1.000000
v 4.279258 -0.739757 -1.000000
v 2.557900 -0.336255 -0.958227
v 3.436676 -0.301802 -1.031642
v 2.719789 0.327896 -1.009269
v 3.556394 0.312768 -1.063273
v 3.325325 0.081231 0.582943
v 3.112256 0.283969 0.526803
v 3.353027 0.599920 0.853331
v 2.532439 0.769913 0.920746
v 2.897800 -0.723527 -0.593362
v 2.661008 -0.381709 -0.271383
v 3.289511 -0.568297 -0.505806
v 3.570447 -0.313895 -0.232964
v 3.357125 1.000000 -0.333333
v 3.357125 1.000000 0.333333
v 2.690458 1.000000 -0.333333
v 2.690458 1.000000 0.333333
vn -0.0000 1.0000 -0.0000
vn -0.0396 -0.6871 0.7255
vn -0.2555 -0.1534 0.9546
vn 0.0986 0.1195 -0.9879
vn 0.1055 -0.1036 -0.9890
vn 0.0445 0.0134 -0.9989
vn 0.2410 -0.2366 -0.9412
vn -0.1150 -0.0819 -0.9900
vn 0.1038 0.0313 -0.9941
vn -0.0809 -0.0568 -0.9951
vn -0.0073 0.0135 -0.9999
vn -0.0629 0.0734 -0.9953
vn 0.2445 -0.8743 0.4193
vn -0.0395 -0.5946 0.8030
vn -0.0361 -0.8228 0.5672
vn -0.1483 -0.9639 0.2212
vn 0.2317 -0.4594 0.8575
vn -0.5455 -0.3643 0.7548
vn 0.0673 -0.3440 0.9365
vn 0.0089 -0.3311 0.9435
vn 0.0693 -0.5842 0.8087
vn -0.1083 -0.4854 0.8675
vn -0.1619 -0.6995 0.6960
vn 0.0961 -0.8785 0.4679
vn 0.0756 -0.7948 0.6022
vn 0.0887 -0.6497 0.7550
vn 0.0207 -0.7797 0.6258
vn -0.3825 -0.4456 0.8094
vn -0.3264 -0.4075 0.8528
vn -0.0000 -0.5556 0.8314
vn -0.0000 -0.0000 -1.0000
vn 0.0515 0.0270 -0.9983
vn 0.2598 -0.1000 -0.9605
vn 0.3551 -0.1497 -0.9228
vn -0.0823 -0.0238 -0.9963
vn -0.0306 -0.0692 -0.9971
vn -0.0651 -0.0386 -0.9971
vn -0.0000 0.0138 -0.9999
vn 0.0566 -0.9504 0.3058
vn -0.1968 -0.7483 0.6335
vn 0.1720 -0.9552 0.2408
vn -0.5545 -0.3774 0.7417
vn 0.1191 -0.6078 0.7851
vn -0.0825 -0.6851 0.7237
vn -0.0000 -0.3442 0.9389
vn 0.1833 -0.3974 0.8992
vn 0.0177 -0.6622 0.7491
vn -0.0890 -0.6713 0.7359
vn -0.0974 -0.7173 0.6899
vn 0.1374 -0.7265 0.6733
vn 0.0274 -0.7450 0.6665
vn -0.1130 -0.7107 0.6944
vn -0.0084 -0.9369 0.3495
vt 0.791667 0.666667
vt 0.763889 0.750000
vt 0.763889 0.666667
vt 0.263889 0.666667
vt 0.291667 0.750000
vt 0.263889 0.750000
vt 0.625000 0.888889
vt 0.541667 0.916667
vt 0.541667 0.888889
vt 0.625000 0.388889
vt 0.541667 0.416667
vt 0.541667 0.388889
vt 0.375000 0.388889
vt 0.458333 0.416667
vt 0.375000 0.416667
vt 0.458333 0.388889
vt 0.458333 0.333333
vt 0.375000 0.361111
vt 0.375000 0.333333
vt 0.458333 0.361111
vt 0.541667 0.333333
vt 0.541667 0.361111
vt 0.625000 0.361111
vt 0.375000 0.888889
vt 0.458333 0.916667
vt 0.375000 0.916667
vt 0.458333 0.888889
vt 0.458333 0.833333
vt 0.375000 0.861111
vt 0.375000 0.833333
vt 0.458333 0.861111
vt 0.541667 0.861111
vt 0.541667 0.833333
vt 0.625000 0.861111
vt 0.236111 0.666667
vt 0.208333 0.750000
vt 0.208333 0.666667
vt 0.236111 0.750000
vt 0.236111 0.500000
vt 0.208333 0.583333
vt 0.208333 0.500000
vt 0.263889 0.500000
vt 0.236111 0.583333
vt 0.263889 0.583333
vt 0.291667 0.583333
vt 0.291667 0.666667
vt 0.736111 0.666667
vt 0.708333 0.750000
vt 0.708333 0.666667
vt 0.736111 0.750000
vt 0.736111 0.500000
vt 0.708333 0.583333
vt 0.708333 0.500000
vt 0.736111 0.583333
vt 0.763889 0.500000
vt 0.763889 0.583333
vt 0.791667 0.500000
vt 0.791667 0.583333
vt 0.791667 0.750000
vt 0.625000 0.916667
vt 0.625000 0.416667
vt 0.625000 0.333333
vt 0.625000 0.833333
vt 0.291667 0.500000
s 0
f 20/1/1 16/2/1 48/3/1
f 44/4/2 6/5/2 14/6/2
f 16/7/3 27/8/3 40/9/3
f 12/10/4 31/11/4 36/12/4
f 9/13/5 32/14/5 1/15/5
f 34/16/6 31/11/6 32/14/6
f 30/17/7 10/18/7 2/19/7
f 33/20/8 9/13/8 10/18/8
f 29/21/9 33/20/9 30/17/9
f 35/22/10 34/16/10 33/20/10
f 29/21/11 11/23/11 35/22/11
f 35/22/12 12/10/12 36/12/12
f 13/24/13 28/25/13 5/26/13
f 38/27/14 27/8/14 28/25/14
f 26/28/15 14/29/15 6/30/15
f 37/31/16 13/24/16 14/29/16
f 26/28/17 39/32/17 37/31/17
f 39/32/18 38/27/18 37/31/18
f 25/33/19 15/34/19 39/32/19
f 39/32/20 16/7/20 40/9/20
f 42/35/21 5/36/21 22/37/21
f 42/35/22 14/6/22 13/38/22
f 10/39/23 21/40/23 2/41/23
f 21/40/24 42/35/24 22/37/24
f 9/42/25 41/43/25 10/39/25
f 43/44/26 42/35/26 41/43/26
f 9/42/27 23/45/27 43/44/27
f 43/44/28 24/46/28 44/4/28
f 46/47/1 7/48/1 18/49/1
f 48/3/1 15/50/1 46/47/1
f 12/51/1 17/52/1 4/53/1
f 45/54/1 18/49/1 17/52/1
f 11/55/1 45/54/1 12/51/1
f 47/56/1 46/47/1 45/54/1
f 3/57/1 47/56/1 11/55/1
f 19/58/1 48/3/1 47/56/1
f 20/1/1 8/59/1 16/2/1
f 44/4/29 24/46/29 6/5/29
f 16/7/30 8/60/30 27/8/30
f 12/10/31 4/61/31 31/11/31
f 9/13/32 34/16/32 32/14/32
f 34/16/33 36/12/33 31/11/33
f 30/17/34 33/20/34 10/18/34
f 33/20/35 34/16/35 9/13/35
f 29/21/36 35/22/36 33/20/36
f 35/22/37 36/12/37 34/16/37
f 29/21/31 3/62/31 11/23/31
f 35/22/38 11/23/38 12/10/38
f 13/24/39 38/27/39 28/25/39
f 38/27/40 40/9/40 27/8/40
f 26/28/41 37/31/41 14/29/41
f 37/31/42 38/27/42 13/24/42
f 26/28/43 25/33/43 39/32/43
f 39/32/44 40/9/44 38/27/44
f 25/33/30 7/63/30 15/34/30
f 39/32/45 15/34/45 16/7/45
f 42/35/46 13/38/46 5/36/46
f 42/35/47 44/4/47 14/6/47
f 10/39/48 41/43/48 21/40/48
f 21/40/49 41/43/49 42/35/49
f 9/42/50 43/44/50 41/43/50
f 43/44/51 44/4/51 42/35/51
f 9/42/52 1/64/52 23/45/52
f 43/44/53 23/45/53 24/46/53
f 46/47/1 15/50/1 7/48/1
f 48/3/1 16/2/1 15/50/1
f 12/51/1 45/54/1 17/52/1
f 45/54/1 46/47/1 18/49/1
f 11/55/1 47/56/1 45/54/1
f 47/56/1 48/3/1 46/47/1
f 3/57/1 19/58/1 47/56/1
f 19/58/1 20/1/1 48/3/1
