# Blender 4.0.2
# www.blender.org
mtllib RockPlatform7.mtl
o Cube.006
v -0.307222 -0.800726 -0.136414
v -0.792864 0.595406 0.901135
v -0.390527 -0.958001 -0.687962
v -1.066160 0.595406 -0.687962
v 0.467960 -0.908284 0.031942
v 0.816760 0.595406 1.010704
v 0.286492 -0.874972 -0.687962
v 0.933840 0.595406 -0.687962
v -0.488513 -0.754478 -0.492655
v -0.437273 -0.868004 -0.415722
v -0.290105 -0.524961 0.299081
v -0.636824 0.340254 0.855292
v -0.977455 0.595406 0.431437
v -0.935712 0.595406 0.036102
v -0.908816 -0.186224 -0.687962
v -0.826252 -0.497964 -0.686499
v 0.155655 -1.226379 -0.687962
v -0.187609 -1.221817 -0.687962
v -0.399493 0.595406 -0.687962
v 0.267174 0.595406 -0.687962
v 0.825767 -0.262865 -0.687962
v 0.509627 -0.634824 -0.686499
v 0.325580 -0.983679 -0.269421
v 0.270029 -1.093943 -0.628066
v 0.933840 0.595406 -0.021295
v 0.752192 0.595406 0.522432
v 0.445543 -0.150769 0.777295
v 0.701574 -0.337656 0.360032
v -0.019560 -1.009850 -0.166011
v 0.202311 -1.127651 -0.215411
v 0.236845 0.595406 1.096476
v -0.180341 0.595406 1.254641
v 0.267174 0.595406 -0.021295
v 0.267174 0.595406 0.645371
v -0.399493 0.595406 -0.021295
v -0.399493 0.595406 0.645371
v -0.179605 -1.258552 -0.615704
v -0.003307 -1.273235 -0.490021
v 0.123052 -1.136815 -0.423558
v 0.042150 -1.108810 -0.362320
v 0.393038 -0.838084 0.520987
v -0.155804 -0.751253 0.293109
v 0.146291 -0.232837 0.930278
v -0.120289 -0.082470 0.773314
v 0.446141 -0.482532 -0.382925
v 0.609032 -0.728749 -0.000695
v 0.868683 0.081713 -0.064915
v 0.729764 -0.134220 0.251217
v -0.243490 -0.525336 -0.686499
v 0.111171 -0.525336 -0.686499
v -0.306899 -0.071261 -0.687962
v 0.174580 -0.071261 -0.687962
v -0.651330 -0.354748 -0.323402
v -0.654790 -0.454798 -0.447716
v -0.592862 -0.018294 0.142877
v -1.051510 0.382995 -0.408340
vn -0.9756 -0.1964 -0.0981
vn -0.0000 -0.0000 -1.0000
vn 0.8650 -0.1980 0.4611
vn -0.3423 -0.5640 0.7515
vn 0.4791 -0.6368 -0.6040
vn -0.0000 1.0000 -0.0000
vn -0.5059 -0.7549 0.4174
vn 0.6611 -0.5656 0.4930
vn -0.7712 -0.5932 0.2312
vn -0.8589 -0.4896 -0.1504
vn -0.0119 -0.8919 -0.4521
vn 0.5683 -0.1306 -0.8124
vn 0.9126 -0.3398 0.2276
vn 0.1625 -0.7984 0.5798
vn -0.5448 -0.7894 0.2830
vn -0.6658 -0.4115 0.6224
vn 0.5078 -0.8384 0.1981
vn -0.3509 -0.8370 0.4200
vn 0.6843 -0.1960 0.7024
vn -0.3826 -0.6195 0.6854
vn 0.4915 -0.2227 0.8419
vn -0.5484 -0.1065 0.8294
vn 0.7528 -0.6276 -0.1986
vn 0.9829 -0.1716 -0.0661
vn 0.2994 -0.2726 -0.9144
vn 0.9658 -0.2489 -0.0731
vn 0.6867 -0.5820 0.4356
vn 0.7947 -0.2966 -0.5297
vn 0.9922 -0.1249 0.0008
vn 0.9385 -0.1456 0.3130
vn -0.0048 0.0018 -1.0000
vn -0.0009 -0.0031 -1.0000
vn 0.0030 0.0023 -1.0000
vn -0.0000 0.0021 -1.0000
vn -0.0002 -0.0032 -1.0000
vn -0.0000 -0.0032 -1.0000
vn -0.6840 -0.6490 0.3331
vn -0.7776 -0.2031 0.5951
vn -0.7847 -0.4108 0.4643
vn -0.8760 -0.4696 -0.1095
vn -0.8403 -0.3842 0.3826
vn -0.8379 -0.4135 0.3561
vn -0.7617 -0.5964 0.2531
vn -0.8271 -0.3920 0.4028
vn -0.9709 0.1633 0.1749
vn 0.9033 -0.4120 -0.1195
vn -0.4539 -0.4189 0.7865
vn 0.7164 -0.6769 -0.1691
vn -0.5356 -0.6682 0.5163
vn -0.3898 -0.8658 0.3139
vn -0.8588 -0.4888 -0.1534
vn -0.4848 -0.6303 0.6064
vn 0.1612 -0.9285 0.3344
vn 0.3144 -0.6350 0.7057
vn -0.7974 -0.1027 -0.5946
vn 0.5008 -0.8461 0.1826
vn -0.8048 -0.4866 0.3398
vn -0.3826 -0.6032 0.6998
vn 0.8615 -0.4671 0.1990
vn -0.3023 -0.8661 0.3981
vn 0.4789 -0.6532 0.5864
vn -0.6260 -0.4326 0.6488
vn 0.1367 -0.3570 0.9240
vn 0.2996 -0.5346 0.7902
vn 0.7601 -0.5285 0.3780
vn 0.8702 0.1331 0.4743
vn 0.8414 -0.3917 0.3724
vn 0.7860 -0.3102 -0.5348
vn 0.6571 -0.6779 0.3296
vn 0.9343 -0.2821 0.2179
vn 0.9921 -0.1258 -0.0000
vn 0.9384 -0.1454 0.3135
vn 0.0013 0.0049 -1.0000
vn 0.0002 0.0033 -1.0000
vn 0.0009 -0.0045 -1.0000
vn -0.6786 -0.4621 0.5709
vn -0.8168 -0.4061 0.4098
vn -0.8084 -0.4824 0.3372
vn -0.8679 -0.4632 0.1796
vn -0.8261 -0.4027 0.3942
vn -0.7857 -0.5360 0.3088
vn -0.8625 -0.4977 -0.0911
vt 0.541667 0.166667
vt 0.625000 0.250000
vt 0.541667 0.250000
vt 0.625000 0.416667
vt 0.541667 0.500000
vt 0.541667 0.416667
vt 0.625000 0.666667
vt 0.541667 0.750000
vt 0.541667 0.666667
vt 0.625000 0.916667
vt 0.541667 1.000000
vt 0.541667 0.916667
vt 0.375000 0.666667
vt 0.291667 0.750000
vt 0.291667 0.666667
vt 0.875000 0.666667
vt 0.791667 0.750000
vt 0.791667 0.666667
vt 0.708333 0.666667
vt 0.625000 0.750000
vt 0.708333 0.750000
vt 0.708333 0.500000
vt 0.625000 0.583333
vt 0.625000 0.500000
vt 0.708333 0.583333
vt 0.791667 0.500000
vt 0.791667 0.583333
vt 0.875000 0.500000
vt 0.875000 0.583333
vt 0.125000 0.666667
vt 0.208333 0.750000
vt 0.125000 0.750000
vt 0.208333 0.666667
vt 0.208333 0.500000
vt 0.125000 0.583333
vt 0.125000 0.500000
vt 0.208333 0.583333
vt 0.291667 0.500000
vt 0.291667 0.583333
vt 0.375000 0.500000
vt 0.458333 0.916667
vt 0.375000 1.000000
vt 0.375000 0.916667
vt 0.458333 1.000000
vt 0.375000 0.750000
vt 0.458333 0.833333
vt 0.375000 0.833333
vt 0.458333 0.750000
vt 0.541667 0.833333
vt 0.625000 0.833333
vt 0.458333 0.666667
vt 0.458333 0.500000
vt 0.375000 0.583333
vt 0.458333 0.583333
vt 0.541667 0.583333
vt 0.458333 0.416667
vt 0.375000 0.416667
vt 0.375000 0.250000
vt 0.458333 0.333333
vt 0.375000 0.333333
vt 0.458333 0.250000
vt 0.541667 0.333333
vt 0.625000 0.333333
vt 0.375000 0.166667
vt 0.458333 0.166667
vt 0.375000 0.000000
vt 0.458333 0.083333
vt 0.375000 0.083333
vt 0.458333 0.000000
vt 0.541667 0.083333
vt 0.541667 0.000000
vt 0.625000 0.083333
vt 0.625000 0.166667
vt 0.625000 1.000000
vt 0.875000 0.750000
vt 0.625000 0.000000
s 0
f 56/1/1 4/2/1 15/3/1
f 20/4/2 21/5/2 52/6/2
f 26/7/3 27/8/3 48/9/3
f 32/10/4 12/11/4 44/12/4
f 23/13/5 30/14/5 40/15/5
f 13/16/6 32/17/6 36/18/6
f 34/19/6 6/20/6 26/7/6
f 36/18/6 31/21/6 34/19/6
f 20/22/6 25/23/6 8/24/6
f 33/25/6 26/7/6 25/23/6
f 19/26/6 33/25/6 20/22/6
f 35/27/6 34/19/6 33/25/6
f 4/28/6 35/27/6 19/26/6
f 14/29/6 36/18/6 35/27/6
f 10/30/7 29/31/7 1/32/7
f 40/15/8 29/31/8 38/33/8
f 18/34/9 9/35/9 3/36/9
f 37/37/10 10/30/10 9/35/10
f 17/38/11 37/37/11 18/34/11
f 39/39/12 38/33/12 37/37/12
f 7/40/13 39/39/13 17/38/13
f 39/39/14 23/13/14 40/15/14
f 42/41/15 1/42/15 29/43/15
f 44/12/16 11/44/16 42/41/16
f 5/45/17 41/46/17 30/47/17
f 41/46/18 29/43/18 30/47/18
f 28/48/19 43/49/19 41/46/19
f 43/49/20 42/41/20 41/46/20
f 27/8/21 31/50/21 43/49/21
f 31/50/22 44/12/22 43/49/22
f 46/51/23 5/45/23 23/13/23
f 48/9/24 28/48/24 46/51/24
f 22/52/25 24/53/25 7/40/25
f 45/54/26 23/13/26 24/53/26
f 21/5/27 45/54/27 22/52/27
f 47/55/28 46/51/28 45/54/28
f 8/24/29 47/55/29 21/5/29
f 25/23/30 48/9/30 47/55/30
f 50/56/31 7/40/31 17/57/31
f 52/6/32 22/52/32 50/56/32
f 3/58/33 49/59/33 18/60/33
f 49/59/34 17/57/34 18/60/34
f 16/61/35 51/62/35 49/59/35
f 51/62/36 50/56/36 49/59/36
f 15/3/2 19/63/2 51/62/2
f 19/63/2 52/6/2 51/62/2
f 9/64/37 16/61/37 3/58/37
f 54/65/38 15/3/38 16/61/38
f 1/66/39 53/67/39 10/68/39
f 10/68/40 54/65/40 9/64/40
f 11/69/41 55/70/41 53/67/41
f 53/67/42 56/1/42 54/65/42
f 12/71/43 13/72/43 55/70/43
f 55/70/44 14/73/44 56/1/44
f 56/1/45 14/73/45 4/2/45
f 20/4/2 8/24/2 21/5/2
f 26/7/46 6/20/46 27/8/46
f 32/10/47 2/74/47 12/11/47
f 23/13/48 5/45/48 30/14/48
f 13/16/6 2/75/6 32/17/6
f 34/19/6 31/21/6 6/20/6
f 36/18/6 32/17/6 31/21/6
f 20/22/6 33/25/6 25/23/6
f 33/25/6 34/19/6 26/7/6
f 19/26/6 35/27/6 33/25/6
f 35/27/6 36/18/6 34/19/6
f 4/28/6 14/29/6 35/27/6
f 14/29/6 13/16/6 36/18/6
f 10/30/49 38/33/49 29/31/49
f 40/15/50 30/14/50 29/31/50
f 18/34/51 37/37/51 9/35/51
f 37/37/52 38/33/52 10/30/52
f 17/38/53 39/39/53 37/37/53
f 39/39/54 40/15/54 38/33/54
f 7/40/55 24/53/55 39/39/55
f 39/39/56 24/53/56 23/13/56
f 42/41/57 11/44/57 1/42/57
f 44/12/58 12/11/58 11/44/58
f 5/45/59 28/48/59 41/46/59
f 41/46/60 42/41/60 29/43/60
f 28/48/61 27/8/61 43/49/61
f 43/49/62 44/12/62 42/41/62
f 27/8/63 6/20/63 31/50/63
f 31/50/64 32/10/64 44/12/64
f 46/51/65 28/48/65 5/45/65
f 48/9/66 27/8/66 28/48/66
f 22/52/67 45/54/67 24/53/67
f 45/54/68 46/51/68 23/13/68
f 21/5/69 47/55/69 45/54/69
f 47/55/70 48/9/70 46/51/70
f 8/24/71 25/23/71 47/55/71
f 25/23/72 26/7/72 48/9/72
f 50/56/73 22/52/73 7/40/73
f 52/6/32 21/5/32 22/52/32
f 3/58/74 16/61/74 49/59/74
f 49/59/34 50/56/34 17/57/34
f 16/61/75 15/3/75 51/62/75
f 51/62/36 52/6/36 50/56/36
f 15/3/2 4/2/2 19/63/2
f 19/63/2 20/4/2 52/6/2
f 9/64/76 54/65/76 16/61/76
f 54/65/77 56/1/77 15/3/77
f 1/66/78 11/69/78 53/67/78
f 10/68/42 53/67/42 54/65/42
f 11/69/79 12/71/79 55/70/79
f 53/67/80 55/70/80 56/1/80
f 12/71/81 2/76/81 13/72/81
f 55/70/82 13/72/82 14/73/82
