# Blender 4.2.0
# www.blender.org
mtllib RockPlatform2.mtl
o Cube
v 1.000000 -1.000000 -1.000000
v -1.000000 -1.000000 -1.000000
v -1.000000 1.000000 -1.000000
v 1.000000 1.000000 -1.000000
v -1.103675 -0.069370 0.017728
v 0.896325 -0.069370 0.017728
v 1.000000 1.000000 1.000000
v -1.000000 1.000000 1.000000
v 0.431965 -0.997087 -1.049916
v -0.076120 -1.095360 -0.995995
v -0.333333 1.000000 -1.000000
v 0.333333 1.000000 -1.000000
v -0.307379 0.093661 -0.001437
v 0.279149 0.031922 0.073185
v 0.333333 1.000000 1.000000
v -0.333333 1.000000 1.000000
v 1.000000 1.000000 -0.333333
v 1.000000 1.000000 0.333333
v -1.000000 1.000000 -0.333333
v -1.000000 1.000000 0.333333
v -0.894588 -0.601659 -0.575145
v -1.318395 -0.480709 -0.261025
v 1.105412 -0.601659 -0.575145
v 0.681605 -0.480709 -0.261025
v 1.250821 0.780769 0.853491
v 1.152064 0.191316 0.412148
v -0.749179 0.780769 0.853491
v -0.847936 0.191316 0.412148
v -1.137023 0.563253 -1.000000
v -0.744534 -0.739757 -1.000000
v 0.862977 0.563253 -1.000000
v 1.255466 -0.739757 -1.000000
v -0.817835 -0.200700 -0.954647
v 0.358434 -0.313932 -0.995815
v -0.318462 0.314949 -0.965484
v 0.166999 0.149875 -1.100939
v 0.341570 0.265117 0.503992
v -0.499254 0.299918 0.439307
v 0.260149 0.524755 0.815920
v -0.233334 0.489955 0.977128
v -0.174167 -0.655433 -0.641185
v -0.804766 -0.316098 -0.157787
v 0.323423 -0.726139 -0.575639
v 0.235326 -0.367448 -0.293772
v 0.333333 1.000000 -0.333333
v 0.333333 1.000000 0.333333
v -0.333333 1.000000 -0.333333
v -0.333333 1.000000 0.333333
vn -0.0000 1.0000 -0.0000
vn -0.0442 -0.6733 0.7380
vn -0.2841 -0.0985 0.9537
vn 0.0836 0.1014 -0.9913
vn 0.0868 -0.0852 -0.9926
vn -0.0054 -0.0016 -1.0000
vn 0.0039 -0.0039 -1.0000
vn -0.1179 0.0658 -0.9908
vn 0.4496 0.1354 -0.8829
vn -0.0573 -0.2431 -0.9683
vn 0.0270 -0.0497 -0.9984
vn -0.2157 0.1566 -0.9638
vn 0.1893 -0.8712 0.4531
vn 0.1284 -0.6081 0.7834
vn -0.0799 -0.8070 0.5851
vn -0.1435 -0.9189 0.3675
vn 0.0026 -0.7683 0.6401
vn -0.0802 -0.7763 0.6252
vn 0.0601 -0.3686 0.9277
vn 0.3093 0.0180 0.9508
vn 0.0160 -0.5666 0.8238
vn -0.1440 -0.1954 0.9701
vn 0.0081 -0.7305 0.6829
vn 0.1588 -0.8304 0.5340
vn 0.1970 -0.5885 0.7841
vn 0.0405 -0.7922 0.6089
vn -0.0473 -0.8719 0.4873
vn -0.2157 -0.6355 0.7413
vn -0.1854 -0.4831 0.8557
vn -0.0000 -0.5556 0.8314
vn -0.0000 -0.0000 -1.0000
vn 0.0346 0.0826 -0.9960
vn 0.2173 -0.1296 -0.9675
vn 0.0544 0.0911 -0.9944
vn -0.0332 0.0187 -0.9993
vn 0.0276 -0.0477 -0.9985
vn -0.2070 0.1803 -0.9616
vn -0.0000 -0.0503 -0.9987
vn 0.2239 -0.8417 0.4914
vn -0.5131 -0.6975 0.5002
vn -0.0257 -0.8776 0.4787
vn -0.0733 -0.8726 0.4829
vn 0.1274 -0.6081 0.7836
vn 0.1526 -0.9531 0.2613
vn -0.0000 -0.3612 0.9325
vn 0.1185 -0.4763 0.8713
vn 0.0621 -0.6790 0.7315
vn -0.0689 -0.6356 0.7690
vn -0.0096 -0.8243 0.5661
vn -0.1838 -0.8710 0.4555
vn -0.1889 -0.6350 0.7490
vn 0.1172 -0.7388 0.6636
vn 0.1350 -0.8499 0.5094
vt 0.791667 0.666667
vt 0.763889 0.750000
vt 0.763889 0.666667
vt 0.263889 0.666667
vt 0.291667 0.750000
vt 0.263889 0.750000
vt 0.625000 0.888889
vt 0.541667 0.916667
vt 0.541667 0.888889
vt 0.625000 0.388889
vt 0.541667 0.416667
vt 0.541667 0.388889
vt 0.375000 0.388889
vt 0.458333 0.416667
vt 0.375000 0.416667
vt 0.458333 0.388889
vt 0.458333 0.333333
vt 0.375000 0.361111
vt 0.375000 0.333333
vt 0.541667 0.333333
vt 0.458333 0.361111
vt 0.625000 0.361111
vt 0.541667 0.361111
vt 0.375000 0.888889
vt 0.458333 0.916667
vt 0.375000 0.916667
vt 0.458333 0.888889
vt 0.458333 0.833333
vt 0.375000 0.861111
vt 0.375000 0.833333
vt 0.541667 0.861111
vt 0.458333 0.861111
vt 0.541667 0.833333
vt 0.625000 0.861111
vt 0.236111 0.666667
vt 0.208333 0.750000
vt 0.208333 0.666667
vt 0.236111 0.750000
vt 0.208333 0.500000
vt 0.236111 0.583333
vt 0.208333 0.583333
vt 0.263889 0.500000
vt 0.236111 0.500000
vt 0.291667 0.500000
vt 0.263889 0.583333
vt 0.291667 0.666667
vt 0.736111 0.666667
vt 0.708333 0.750000
vt 0.708333 0.666667
vt 0.736111 0.750000
vt 0.736111 0.500000
vt 0.708333 0.583333
vt 0.708333 0.500000
vt 0.736111 0.583333
vt 0.763889 0.500000
vt 0.763889 0.583333
vt 0.791667 0.500000
vt 0.791667 0.583333
vt 0.791667 0.750000
vt 0.625000 0.916667
vt 0.625000 0.416667
vt 0.625000 0.333333
vt 0.625000 0.833333
vt 0.291667 0.583333
s 0
f 20/1/1 16/2/1 48/3/1
f 44/4/2 6/5/2 14/6/2
f 16/7/3 27/8/3 40/9/3
f 12/10/4 31/11/4 36/12/4
f 9/13/5 32/14/5 1/15/5
f 34/16/6 31/11/6 32/14/6
f 30/17/7 10/18/7 2/19/7
f 10/18/8 34/16/8 9/13/8
f 29/20/9 33/21/9 30/17/9
f 33/21/10 36/12/10 34/16/10
f 29/20/11 11/22/11 35/23/11
f 35/23/12 12/10/12 36/12/12
f 13/24/13 28/25/13 5/26/13
f 38/27/14 27/8/14 28/25/14
f 26/28/15 14/29/15 6/30/15
f 14/29/16 38/27/16 13/24/16
f 26/28/17 39/31/17 37/32/17
f 39/31/18 38/27/18 37/32/18
f 25/33/19 15/34/19 39/31/19
f 39/31/20 16/7/20 40/9/20
f 42/35/21 5/36/21 22/37/21
f 42/35/22 14/6/22 13/38/22
f 2/39/23 41/40/23 21/41/23
f 21/41/24 42/35/24 22/37/24
f 9/42/25 41/40/25 10/43/25
f 41/40/26 44/4/26 42/35/26
f 1/44/27 43/45/27 9/42/27
f 43/45/28 24/46/28 44/4/28
f 46/47/1 7/48/1 18/49/1
f 48/3/1 15/50/1 46/47/1
f 12/51/1 17/52/1 4/53/1
f 45/54/1 18/49/1 17/52/1
f 11/55/1 45/54/1 12/51/1
f 47/56/1 46/47/1 45/54/1
f 3/57/1 47/56/1 11/55/1
f 19/58/1 48/3/1 47/56/1
f 20/1/1 8/59/1 16/2/1
f 44/4/29 24/46/29 6/5/29
f 16/7/30 8/60/30 27/8/30
f 12/10/31 4/61/31 31/11/31
f 9/13/32 34/16/32 32/14/32
f 34/16/33 36/12/33 31/11/33
f 30/17/34 33/21/34 10/18/34
f 10/18/35 33/21/35 34/16/35
f 29/20/36 35/23/36 33/21/36
f 33/21/37 35/23/37 36/12/37
f 29/20/31 3/62/31 11/22/31
f 35/23/38 11/22/38 12/10/38
f 13/24/39 38/27/39 28/25/39
f 38/27/40 40/9/40 27/8/40
f 26/28/41 37/32/41 14/29/41
f 14/29/42 37/32/42 38/27/42
f 26/28/43 25/33/43 39/31/43
f 39/31/44 40/9/44 38/27/44
f 25/33/30 7/63/30 15/34/30
f 39/31/45 15/34/45 16/7/45
f 42/35/46 13/38/46 5/36/46
f 42/35/47 44/4/47 14/6/47
f 2/39/48 10/43/48 41/40/48
f 21/41/49 41/40/49 42/35/49
f 9/42/50 43/45/50 41/40/50
f 41/40/51 43/45/51 44/4/51
f 1/44/52 23/64/52 43/45/52
f 43/45/53 23/64/53 24/46/53
f 46/47/1 15/50/1 7/48/1
f 48/3/1 16/2/1 15/50/1
f 12/51/1 45/54/1 17/52/1
f 45/54/1 46/47/1 18/49/1
f 11/55/1 47/56/1 45/54/1
f 47/56/1 48/3/1 46/47/1
f 3/57/1 19/58/1 47/56/1
f 19/58/1 20/1/1 48/3/1
