# Blender 4.2.0
# www.blender.org
mtllib lamppost.mtl
o Cylinder
v -0.595354 -0.860121 0.000000
v -0.743680 -0.983814 0.000000
v -0.916347 0.871450 0.000000
v -1.083653 0.972484 0.000000
v -0.297677 -0.860121 -0.515591
v -0.371840 -0.983813 -0.644046
v -0.458174 0.871451 -0.793580
v -0.541826 0.972484 -0.938471
v 0.297677 -0.860121 -0.515591
v 0.371840 -0.983814 -0.644046
v 0.458174 0.871451 -0.793580
v 0.541826 0.972484 -0.938471
v 0.595354 -0.860121 -0.000000
v 0.743680 -0.983814 -0.000000
v 0.916347 0.871451 -0.000000
v 1.083653 0.972484 -0.000000
v 0.297677 -0.860121 0.515592
v 0.371840 -0.983814 0.644046
v 0.458174 0.871451 0.793580
v 0.541826 0.972482 0.938471
v -0.297677 -0.860121 0.515592
v -0.371840 -0.983814 0.644046
v -0.458174 0.871451 0.793580
v -0.541826 0.972484 0.938471
v -0.635707 -0.830700 -0.086892
v -0.933475 0.830700 -0.086892
v -0.541988 0.830700 -0.764968
v -0.393104 -0.830700 -0.507093
v -0.242603 -0.830700 -0.593985
v -0.391487 0.830700 -0.851859
v 0.391487 0.830700 -0.851859
v 0.242603 -0.830700 -0.593985
v 0.393104 -0.830700 -0.507093
v 0.541988 0.830700 -0.764968
v 0.933475 0.830700 -0.086892
v 0.635707 -0.830700 -0.086892
v 0.635707 -0.830700 0.086892
v 0.933475 0.830700 0.086892
v 0.541988 0.830700 0.764968
v 0.393104 -0.830700 0.507093
v -0.442265 0.972482 -0.766025
v -0.884530 0.972482 0.000000
v -0.442265 0.972482 0.766025
v 0.442265 0.972482 0.766025
v 0.884530 0.972482 -0.000000
v 0.442265 0.972482 -0.766025
v 0.242603 -0.830700 0.593985
v 0.391487 0.830700 0.851859
v -0.391487 0.830700 0.851859
v -0.242603 -0.830700 0.593985
v -0.393104 -0.830700 0.507093
v -0.541988 0.830700 0.764968
v -0.933475 0.830700 0.086892
v -0.635707 -0.830700 0.086892
v -0.334727 -0.983813 0.000000
v -0.167363 -0.983813 -0.289882
v 0.167363 -0.983813 -0.289882
v 0.334727 -0.983813 0.000000
v 0.167363 -0.983813 0.289882
v -0.167363 -0.983813 0.289882
v -1.536419 1.211955 0.000000
v -0.768210 1.211955 -1.330578
v 0.768210 1.211955 -1.330578
v 1.536420 1.211955 0.000000
v 0.768210 1.211952 1.330579
v -0.768209 1.211955 1.330579
v 0.000000 1.690275 0.000000
v -1.294250 1.260996 0.000000
v -0.647125 1.260996 -1.120853
v -0.647125 1.260996 1.120854
v 0.647125 1.260994 1.120854
v 1.294250 1.260996 0.000000
v 0.647125 1.260996 -1.120853
v -0.299974 1.616193 -0.519570
v -0.550044 1.403407 -0.952705
v -1.100089 1.403407 0.000000
v -0.599949 1.616193 0.000000
v -0.550044 1.403407 0.952706
v -0.299974 1.616193 0.519571
v 0.550045 1.403407 0.952705
v 0.299975 1.616193 0.519571
v 1.100089 1.403407 0.000000
v 0.599949 1.616193 0.000000
v 0.550045 1.403407 -0.952705
v 0.299975 1.616193 -0.519570
v -0.334727 -10.253682 0.000000
v -0.167363 -10.253682 -0.289882
v 0.167363 -10.253682 -0.289882
v 0.334727 -10.253682 0.000000
v 0.167363 -10.253682 0.289882
v -0.167363 -10.253682 0.289882
vn 0.9322 0.1700 -0.3194
vn -0.5528 -0.0975 -0.8276
vn 0.4963 -0.8195 0.2865
vn -0.7390 -0.5213 -0.4267
vn 0.1895 0.1700 0.9671
vn -0.9931 -0.0975 -0.0650
vn 0.3043 0.9362 0.1757
vn -0.8231 0.3108 -0.4752
vn 0.7428 0.1700 0.6476
vn 0.4403 -0.0975 -0.8926
vn -0.0000 -0.8195 0.5730
vn -0.0000 -0.5213 -0.8534
vn -0.7428 0.1700 0.6476
vn -0.4403 -0.0975 -0.8926
vn -0.0000 0.9362 0.3514
vn -0.0000 0.3108 -0.9505
vn -0.1895 0.1700 0.9671
vn 0.9931 -0.0975 -0.0650
vn -0.4963 -0.8195 0.2865
vn 0.7390 -0.5213 -0.4267
vn -0.9322 0.1700 -0.3194
vn 0.5528 -0.0975 -0.8276
vn -0.3043 0.9362 0.1757
vn 0.8231 0.3108 -0.4752
vn -0.9322 0.1700 0.3194
vn 0.5528 -0.0975 0.8276
vn -0.4963 -0.8195 -0.2865
vn 0.7390 -0.5213 0.4267
vn -0.1895 0.1700 -0.9671
vn 0.9931 -0.0975 0.0650
vn -0.3043 0.9362 -0.1757
vn 0.8231 0.3108 0.4752
vn 0.8355 -0.2631 0.4824
vn 0.5597 0.7631 -0.3231
vn 0.8355 -0.2631 -0.4824
vn 0.4514 -0.8534 0.2606
vn -0.0000 -0.2631 -0.9648
vn -0.0000 0.7631 -0.6463
vn -0.8355 -0.2631 -0.4824
vn -0.8355 -0.2631 0.4824
vn -0.5597 0.7631 0.3231
vn -0.0000 -0.2631 0.9648
vn -0.0000 -0.8534 0.5212
vn -0.7428 0.1700 -0.6476
vn -0.4403 -0.0975 0.8926
vn -0.0000 -0.8195 -0.5730
vn -0.0000 -0.5213 0.8534
vn 0.7428 0.1700 -0.6476
vn 0.4403 -0.0975 0.8926
vn -0.0000 0.9362 -0.3514
vn -0.0000 0.3108 0.9505
vn 0.1895 0.1700 -0.9671
vn -0.9931 -0.0975 0.0650
vn 0.4963 -0.8195 -0.2865
vn -0.7390 -0.5213 0.4267
vn 0.9322 0.1700 0.3194
vn -0.5528 -0.0975 0.8276
vn 0.3043 0.9362 -0.1757
vn -0.8231 0.3108 0.4752
vn 0.4162 0.8770 0.2403
vn -0.0000 -1.0000 -0.0000
vn -0.0000 0.8770 0.4806
vn -0.4162 0.8770 0.2403
vn -0.4162 0.8769 -0.2403
vn -0.0000 0.8770 -0.4806
vn 0.4162 0.8769 -0.2403
vn -0.1972 0.9737 -0.1138
vn -0.1972 0.9737 0.1138
vn -0.0000 0.9737 0.2277
vn 0.1972 0.9737 0.1138
vn 0.1972 0.9737 -0.1138
vn -0.0000 0.9737 -0.2277
vn -0.4514 -0.8534 -0.2606
vn -0.0000 0.7631 0.6463
vn -0.4514 -0.8534 0.2606
vn -0.0000 -0.8534 -0.5212
vn 0.5597 0.7631 0.3231
vn 0.4514 -0.8534 -0.2606
vn -0.0000 -0.7297 -0.6838
vn 0.5922 -0.7297 -0.3419
vn -0.0000 -0.7297 0.6838
vn -0.5922 -0.7297 0.3419
vn 0.5922 -0.7297 0.3419
vn -0.5922 -0.7297 -0.3419
vn -0.0000 0.9900 -0.1412
vn 0.1222 0.9900 -0.0706
vn 0.1222 0.9900 0.0706
vn -0.0000 0.9900 0.1412
vn -0.1222 0.9900 0.0706
vn -0.1222 0.9900 -0.0706
vn -0.3819 0.8975 -0.2205
vn -0.3819 0.8975 0.2205
vn -0.0000 0.8975 0.4409
vn 0.3819 0.8975 0.2205
vn 0.3819 0.8975 -0.2205
vn -0.0000 0.8975 -0.4409
vn -0.5597 0.7631 -0.3231
vn -0.0000 -0.0000 -1.0000
vn -0.0000 -0.0000 1.0000
vn -0.8660 -0.0000 -0.5000
vn 0.8660 -0.0000 -0.5000
vn -0.8660 -0.0000 0.5000
vn 0.8660 -0.0000 0.5000
vn -0.0000 1.0000 -0.0000
vt 1.000000 0.500000
vt 1.000000 1.000000
vt 0.833333 1.000000
vt 0.833333 0.500000
vt 0.666667 1.000000
vt 0.666667 0.500000
vt 0.500000 1.000000
vt 0.500000 0.500000
vt 0.333333 1.000000
vt 0.333333 0.500000
vt 0.457846 0.370000
vt 0.250000 0.490000
vt 0.457846 0.130000
vt 0.250000 0.010000
vt 0.457846 0.130000
vt 0.042154 0.370000
vt 0.042154 0.130000
vt 0.250000 0.490000
vt 0.166667 1.000000
vt 0.166667 0.500000
vt -0.000000 1.000000
vt -0.000000 0.500000
vt 0.750000 0.490000
vt 0.957846 0.370000
vt 0.957846 0.130000
vt 0.750000 0.010000
vt 0.542154 0.130000
vt 0.542154 0.370000
vt 0.457846 0.292784
vt 0.390975 0.091392
vt 0.183129 0.048608
vt 0.042154 0.207216
vt 0.109025 0.408608
vt 0.316871 0.451392
vt 0.000000 0.000000
s 0
f 25/1/1 26/2/1 3/2/1 1/1/1
f 26/2/2 25/1/2 2/1/2 4/2/2
f 26/2/3 27/3/3 7/3/3 3/2/3
f 27/3/4 26/2/4 4/2/4 8/3/4
f 27/3/5 28/4/5 5/4/5 7/3/5
f 28/4/6 27/3/6 8/3/6 6/4/6
f 28/4/7 25/1/7 1/1/7 5/4/7
f 25/1/8 28/4/8 6/4/8 2/1/8
f 29/4/9 30/3/9 7/3/9 5/4/9
f 30/3/10 29/4/10 6/4/10 8/3/10
f 30/3/11 31/5/11 11/5/11 7/3/11
f 31/5/12 30/3/12 8/3/12 12/5/12
f 31/5/13 32/6/13 9/6/13 11/5/13
f 32/6/14 31/5/14 12/5/14 10/6/14
f 32/6/15 29/4/15 5/4/15 9/6/15
f 29/4/16 32/6/16 10/6/16 6/4/16
f 33/6/17 34/5/17 11/5/17 9/6/17
f 34/5/18 33/6/18 10/6/18 12/5/18
f 34/5/19 35/7/19 15/7/19 11/5/19
f 35/7/20 34/5/20 12/5/20 16/7/20
f 35/7/21 36/8/21 13/8/21 15/7/21
f 36/8/22 35/7/22 16/7/22 14/8/22
f 36/8/23 33/6/23 9/6/23 13/8/23
f 33/6/24 36/8/24 14/8/24 10/6/24
f 37/8/25 38/7/25 15/7/25 13/8/25
f 38/7/26 37/8/26 14/8/26 16/7/26
f 38/7/27 39/9/27 19/9/27 15/7/27
f 39/9/28 38/7/28 16/7/28 20/9/28
f 39/9/29 40/10/29 17/10/29 19/9/29
f 40/10/30 39/9/30 20/9/30 18/10/30
f 40/10/31 37/8/31 13/8/31 17/10/31
f 37/8/32 40/10/32 18/10/32 14/8/32
f 41/11/33 42/12/33 3/12/33 7/11/33
f 84/13/34 82/14/34 72/14/34 73/15/34
f 42/12/35 43/16/35 23/16/35 3/12/35
f 20/9/36 16/7/36 64/7/36 65/9/36
f 43/16/37 44/17/37 19/17/37 23/16/37
f 75/11/38 84/13/38 73/15/38 69/11/38
f 44/17/39 45/14/39 15/14/39 19/17/39
f 45/14/40 46/13/40 11/13/40 15/14/40
f 78/16/41 76/12/41 68/18/41 70/16/41
f 46/13/42 41/11/42 7/11/42 11/13/42
f 24/19/43 20/9/43 65/9/43 66/19/43
f 47/10/44 48/9/44 19/9/44 17/10/44
f 48/9/45 47/10/45 18/10/45 20/9/45
f 48/9/46 49/19/46 23/19/46 19/9/46
f 49/19/47 48/9/47 20/9/47 24/19/47
f 49/19/48 50/20/48 21/20/48 23/19/48
f 50/20/49 49/19/49 24/19/49 22/20/49
f 50/20/50 47/10/50 17/10/50 21/20/50
f 47/10/51 50/20/51 22/20/51 18/10/51
f 51/20/52 52/19/52 23/19/52 21/20/52
f 52/19/53 51/20/53 22/20/53 24/19/53
f 52/19/54 53/21/54 3/21/54 23/19/54
f 53/21/55 52/19/55 24/19/55 4/21/55
f 53/21/56 54/22/56 1/22/56 3/21/56
f 54/22/57 53/21/57 4/21/57 2/22/57
f 54/22/58 51/20/58 21/20/58 1/22/58
f 51/20/59 54/22/59 2/22/59 22/20/59
f 55/23/60 56/24/60 5/24/60 1/23/60
f 56/24/61 55/23/61 2/23/61 6/24/61
f 56/24/62 57/25/62 9/25/62 5/24/62
f 57/25/61 56/24/61 6/24/61 10/25/61
f 57/25/63 58/26/63 13/26/63 9/25/63
f 58/26/61 57/25/61 10/25/61 14/26/61
f 58/26/64 59/27/64 17/27/64 13/26/64
f 59/27/61 58/26/61 14/26/61 18/27/61
f 59/27/65 60/28/65 21/28/65 17/27/65
f 60/28/61 59/27/61 18/27/61 22/28/61
f 60/28/66 55/23/66 1/23/66 21/28/66
f 55/23/61 60/28/61 22/28/61 2/23/61
f 68/18/67 69/11/67 62/11/67 61/12/67
f 70/16/68 68/18/68 61/12/68 66/16/68
f 71/17/69 70/16/69 66/16/69 65/17/69
f 72/14/70 71/17/70 65/17/70 64/14/70
f 73/15/71 72/14/71 64/14/71 63/13/71
f 69/11/72 73/15/72 63/13/72 62/11/72
f 8/3/73 4/2/73 61/2/73 62/3/73
f 80/17/74 78/16/74 70/16/74 71/17/74
f 4/21/75 24/19/75 66/19/75 61/21/75
f 12/5/76 8/3/76 62/3/76 63/5/76
f 82/14/77 80/17/77 71/17/77 72/14/77
f 16/7/78 12/5/78 63/5/78 64/7/78
f 44/17/79 43/16/79 67/17/79
f 43/16/80 42/12/80 67/16/80
f 41/11/81 46/13/81 67/11/81
f 46/13/82 45/14/82 67/13/82
f 42/12/83 41/11/83 67/12/83
f 45/14/84 44/17/84 67/14/84
f 67/13/85 85/13/85 74/29/85
f 67/14/86 83/14/86 85/30/86
f 67/17/87 81/17/87 83/31/87
f 67/16/88 79/16/88 81/32/88
f 67/12/89 77/12/89 79/33/89
f 67/11/90 74/11/90 77/34/90
f 75/11/91 76/12/91 77/34/91 74/11/91
f 76/12/92 78/16/92 79/33/92 77/12/92
f 78/16/93 80/17/93 81/32/93 79/16/93
f 80/17/94 82/14/94 83/31/94 81/17/94
f 82/14/95 84/13/95 85/30/95 83/14/95
f 84/13/96 75/11/96 74/29/96 85/13/96
f 76/12/97 75/11/97 69/11/97 68/18/97
f 56/24/98 57/25/98 88/25/98 87/24/98
f 91/35/61 86/35/61 87/35/61 88/35/61 89/35/61 90/35/61
f 59/27/99 60/28/99 91/28/99 90/27/99
f 55/23/100 56/24/100 87/24/100 86/23/100
f 57/25/101 58/26/101 89/26/101 88/25/101
f 60/28/102 55/23/102 86/23/102 91/28/102
f 58/26/103 59/27/103 90/27/103 89/26/103
f 55/35/104 60/35/104 59/35/104 58/35/104 57/35/104 56/35/104
